<svg id="Layer_1" data-name="Layer 1" xmlns="http://www.w3.org/2000/svg" viewBox="0 0 200 200"><defs><style>.cls-1{fill:#eca400;}.cls-2{fill:#fff;}</style></defs><title>thb-logo</title><rect class="cls-1" x="6" y="47" width="188" height="105"/><path class="cls-2" d="M63,80.3H43v52H30.92v-52h-20V69.62H63Z"/><path class="cls-2" d="M124.36,69.62v62.65H112.27V105.53H83.86v26.74H71.68V69.62H83.86V95h28.41V69.62Z"/><path class="cls-2" d="M188.76,116.12a14.17,14.17,0,0,1-5.95,12,20.58,20.58,0,0,1-6.44,3.09,28.23,28.23,0,0,1-7.81,1.06H138.3V69.62h33.53A12.29,12.29,0,0,1,177.74,71a14.85,14.85,0,0,1,4.5,3.66,16.72,16.72,0,0,1,2.86,5.11,17.11,17.11,0,0,1-1.28,14.39,14,14,0,0,1-6.7,6,16.13,16.13,0,0,1,8.51,5.69A16.44,16.44,0,0,1,188.76,116.12ZM150.47,80v15.8h16.24A7.23,7.23,0,0,0,172,93.71a7.77,7.77,0,0,0,2.16-5.82,8,8,0,0,0-2-5.74A6.44,6.44,0,0,0,167.24,80Zm26,33.8a9.22,9.22,0,0,0-.57-3.22,9,9,0,0,0-1.55-2.69,7,7,0,0,0-2.29-1.81,6.41,6.41,0,0,0-2.91-.66H150.47v16.49h18.09a7.94,7.94,0,0,0,3.13-.61,7.63,7.63,0,0,0,2.52-1.72,8.4,8.4,0,0,0,1.67-2.61A8.29,8.29,0,0,0,176.5,113.83Z"/></svg>